<mxfile host="app.diagrams.net" modified="2021-08-08T02:38:49.229Z" agent="5.0 (Windows NT 10.0; Win64; x64) AppleWebKit/537.36 (KHTML, like Gecko) Chrome/92.0.4515.131 Safari/537.36 Edg/92.0.902.67" etag="tx7QoF7HG00bG5AZZ3vi" version="14.9.5" type="github">
  <diagram id="zqpnljXwghXzhctU7lQJ" name="Page-1">
    <mxGraphModel dx="1422" dy="1963" grid="1" gridSize="10" guides="1" tooltips="1" connect="1" arrows="1" fold="1" page="1" pageScale="1" pageWidth="827" pageHeight="1169" math="0" shadow="0">
      <root>
        <mxCell id="0" />
        <mxCell id="1" parent="0" />
        <mxCell id="A9bid5trGiSyEzx3tyn_-23" style="edgeStyle=orthogonalEdgeStyle;rounded=0;orthogonalLoop=1;jettySize=auto;html=1;entryX=1;entryY=0.5;entryDx=0;entryDy=0;" edge="1" parent="1" source="A9bid5trGiSyEzx3tyn_-1" target="A9bid5trGiSyEzx3tyn_-14">
          <mxGeometry relative="1" as="geometry" />
        </mxCell>
        <mxCell id="A9bid5trGiSyEzx3tyn_-24" style="edgeStyle=orthogonalEdgeStyle;rounded=0;orthogonalLoop=1;jettySize=auto;html=1;entryX=1;entryY=0.5;entryDx=0;entryDy=0;" edge="1" parent="1" source="A9bid5trGiSyEzx3tyn_-1" target="A9bid5trGiSyEzx3tyn_-22">
          <mxGeometry relative="1" as="geometry" />
        </mxCell>
        <mxCell id="A9bid5trGiSyEzx3tyn_-1" value="一般用户" style="shape=umlActor;verticalLabelPosition=bottom;verticalAlign=top;html=1;outlineConnect=0;" vertex="1" parent="1">
          <mxGeometry x="220" y="600" width="30" height="60" as="geometry" />
        </mxCell>
        <mxCell id="A9bid5trGiSyEzx3tyn_-37" style="edgeStyle=orthogonalEdgeStyle;rounded=0;orthogonalLoop=1;jettySize=auto;html=1;entryX=0.1;entryY=0.5;entryDx=0;entryDy=0;entryPerimeter=0;" edge="1" parent="1" source="A9bid5trGiSyEzx3tyn_-7" target="A9bid5trGiSyEzx3tyn_-38">
          <mxGeometry relative="1" as="geometry">
            <mxPoint x="900" y="456" as="targetPoint" />
            <Array as="points">
              <mxPoint x="860" y="456" />
              <mxPoint x="860" y="330" />
            </Array>
          </mxGeometry>
        </mxCell>
        <mxCell id="A9bid5trGiSyEzx3tyn_-46" style="edgeStyle=orthogonalEdgeStyle;rounded=0;orthogonalLoop=1;jettySize=auto;html=1;entryX=0;entryY=0.5;entryDx=0;entryDy=0;" edge="1" parent="1" source="A9bid5trGiSyEzx3tyn_-7" target="A9bid5trGiSyEzx3tyn_-43">
          <mxGeometry relative="1" as="geometry">
            <Array as="points">
              <mxPoint x="860" y="456" />
              <mxPoint x="860" y="461" />
            </Array>
          </mxGeometry>
        </mxCell>
        <mxCell id="A9bid5trGiSyEzx3tyn_-96" style="edgeStyle=orthogonalEdgeStyle;rounded=0;orthogonalLoop=1;jettySize=auto;html=1;entryX=0;entryY=0.5;entryDx=0;entryDy=0;" edge="1" parent="1" source="A9bid5trGiSyEzx3tyn_-7" target="A9bid5trGiSyEzx3tyn_-86">
          <mxGeometry relative="1" as="geometry">
            <Array as="points">
              <mxPoint x="860" y="456" />
              <mxPoint x="860" y="545" />
            </Array>
          </mxGeometry>
        </mxCell>
        <mxCell id="A9bid5trGiSyEzx3tyn_-7" value="保安员&lt;br&gt;" style="shape=umlActor;verticalLabelPosition=bottom;verticalAlign=top;html=1;outlineConnect=0;" vertex="1" parent="1">
          <mxGeometry x="800" y="426" width="30" height="60" as="geometry" />
        </mxCell>
        <mxCell id="A9bid5trGiSyEzx3tyn_-11" value="行业/公安用户" style="shape=umlActor;verticalLabelPosition=bottom;verticalAlign=top;html=1;outlineConnect=0;" vertex="1" parent="1">
          <mxGeometry x="800" y="960" width="30" height="60" as="geometry" />
        </mxCell>
        <mxCell id="A9bid5trGiSyEzx3tyn_-14" value="退出" style="ellipse;whiteSpace=wrap;html=1;" vertex="1" parent="1">
          <mxGeometry x="40" y="300" width="80" height="50" as="geometry" />
        </mxCell>
        <mxCell id="A9bid5trGiSyEzx3tyn_-15" value="登入" style="ellipse;whiteSpace=wrap;html=1;" vertex="1" parent="1">
          <mxGeometry x="40" y="370" width="80" height="50" as="geometry" />
        </mxCell>
        <mxCell id="A9bid5trGiSyEzx3tyn_-16" value="身份核验" style="ellipse;whiteSpace=wrap;html=1;" vertex="1" parent="1">
          <mxGeometry x="40" y="440" width="80" height="50" as="geometry" />
        </mxCell>
        <mxCell id="A9bid5trGiSyEzx3tyn_-17" value="学习" style="ellipse;whiteSpace=wrap;html=1;" vertex="1" parent="1">
          <mxGeometry x="40" y="590" width="80" height="50" as="geometry" />
        </mxCell>
        <mxCell id="A9bid5trGiSyEzx3tyn_-18" value="购买保险" style="ellipse;whiteSpace=wrap;html=1;" vertex="1" parent="1">
          <mxGeometry x="40" y="670" width="80" height="50" as="geometry" />
        </mxCell>
        <mxCell id="A9bid5trGiSyEzx3tyn_-19" value="IM/通讯" style="ellipse;whiteSpace=wrap;html=1;" vertex="1" parent="1">
          <mxGeometry x="40" y="750" width="80" height="50" as="geometry" />
        </mxCell>
        <mxCell id="A9bid5trGiSyEzx3tyn_-20" value="钱包/支付" style="ellipse;whiteSpace=wrap;html=1;" vertex="1" parent="1">
          <mxGeometry x="40" y="830" width="80" height="50" as="geometry" />
        </mxCell>
        <mxCell id="A9bid5trGiSyEzx3tyn_-21" value="高级认证" style="ellipse;whiteSpace=wrap;html=1;" vertex="1" parent="1">
          <mxGeometry x="40" y="510" width="80" height="50" as="geometry" />
        </mxCell>
        <mxCell id="A9bid5trGiSyEzx3tyn_-22" value="分享" style="ellipse;whiteSpace=wrap;html=1;" vertex="1" parent="1">
          <mxGeometry x="40" y="1230" width="80" height="50" as="geometry" />
        </mxCell>
        <mxCell id="A9bid5trGiSyEzx3tyn_-25" value="地图" style="ellipse;whiteSpace=wrap;html=1;" vertex="1" parent="1">
          <mxGeometry x="40" y="910" width="80" height="50" as="geometry" />
        </mxCell>
        <mxCell id="A9bid5trGiSyEzx3tyn_-26" value="轨迹" style="ellipse;whiteSpace=wrap;html=1;" vertex="1" parent="1">
          <mxGeometry x="40" y="990" width="80" height="50" as="geometry" />
        </mxCell>
        <mxCell id="A9bid5trGiSyEzx3tyn_-27" value="背景筛查" style="ellipse;whiteSpace=wrap;html=1;" vertex="1" parent="1">
          <mxGeometry x="920" y="260" width="80" height="50" as="geometry" />
        </mxCell>
        <mxCell id="A9bid5trGiSyEzx3tyn_-28" value="实名认证" style="ellipse;whiteSpace=wrap;html=1;" vertex="1" parent="1">
          <mxGeometry x="1020" y="260" width="80" height="50" as="geometry" />
        </mxCell>
        <mxCell id="A9bid5trGiSyEzx3tyn_-29" value="合同" style="ellipse;whiteSpace=wrap;html=1;" vertex="1" parent="1">
          <mxGeometry x="1120" y="260" width="80" height="50" as="geometry" />
        </mxCell>
        <mxCell id="A9bid5trGiSyEzx3tyn_-30" value="邀请" style="ellipse;whiteSpace=wrap;html=1;" vertex="1" parent="1">
          <mxGeometry x="40" y="1070" width="80" height="50" as="geometry" />
        </mxCell>
        <mxCell id="A9bid5trGiSyEzx3tyn_-31" value="会议" style="ellipse;whiteSpace=wrap;html=1;" vertex="1" parent="1">
          <mxGeometry x="40" y="1150" width="80" height="50" as="geometry" />
        </mxCell>
        <mxCell id="A9bid5trGiSyEzx3tyn_-32" value="表彰奖励" style="ellipse;whiteSpace=wrap;html=1;" vertex="1" parent="1">
          <mxGeometry x="920" y="340" width="80" height="50" as="geometry" />
        </mxCell>
        <mxCell id="A9bid5trGiSyEzx3tyn_-33" value="就职查询" style="ellipse;whiteSpace=wrap;html=1;" vertex="1" parent="1">
          <mxGeometry x="1020" y="340" width="80" height="50" as="geometry" />
        </mxCell>
        <mxCell id="A9bid5trGiSyEzx3tyn_-35" value="好人好事" style="ellipse;whiteSpace=wrap;html=1;" vertex="1" parent="1">
          <mxGeometry x="1120" y="340" width="80" height="50" as="geometry" />
        </mxCell>
        <mxCell id="A9bid5trGiSyEzx3tyn_-38" value="" style="shape=curlyBracket;whiteSpace=wrap;html=1;rounded=1;" vertex="1" parent="1">
          <mxGeometry x="890" y="290" width="30" height="80" as="geometry" />
        </mxCell>
        <mxCell id="A9bid5trGiSyEzx3tyn_-39" value="保安员导入" style="ellipse;whiteSpace=wrap;html=1;" vertex="1" parent="1">
          <mxGeometry x="1220" y="260" width="80" height="50" as="geometry" />
        </mxCell>
        <mxCell id="A9bid5trGiSyEzx3tyn_-40" value="批量离职" style="ellipse;whiteSpace=wrap;html=1;" vertex="1" parent="1">
          <mxGeometry x="1220" y="340" width="80" height="50" as="geometry" />
        </mxCell>
        <mxCell id="A9bid5trGiSyEzx3tyn_-41" value="驻勤管理" style="ellipse;whiteSpace=wrap;html=1;" vertex="1" parent="1">
          <mxGeometry x="1120" y="440" width="80" height="50" as="geometry" />
        </mxCell>
        <mxCell id="A9bid5trGiSyEzx3tyn_-42" value="人员查询" style="ellipse;whiteSpace=wrap;html=1;" vertex="1" parent="1">
          <mxGeometry x="1220" y="440" width="80" height="50" as="geometry" />
        </mxCell>
        <mxCell id="A9bid5trGiSyEzx3tyn_-43" value="调度指挥" style="ellipse;whiteSpace=wrap;html=1;" vertex="1" parent="1">
          <mxGeometry x="920" y="436" width="80" height="50" as="geometry" />
        </mxCell>
        <mxCell id="A9bid5trGiSyEzx3tyn_-44" value="驻勤排版" style="ellipse;whiteSpace=wrap;html=1;" vertex="1" parent="1">
          <mxGeometry x="1020" y="440" width="80" height="50" as="geometry" />
        </mxCell>
        <mxCell id="A9bid5trGiSyEzx3tyn_-62" style="edgeStyle=orthogonalEdgeStyle;rounded=0;orthogonalLoop=1;jettySize=auto;html=1;entryX=0.5;entryY=1;entryDx=0;entryDy=0;" edge="1" parent="1" source="A9bid5trGiSyEzx3tyn_-48">
          <mxGeometry relative="1" as="geometry">
            <mxPoint x="320" y="458" as="targetPoint" />
            <Array as="points">
              <mxPoint x="505" y="510" />
              <mxPoint x="320" y="510" />
            </Array>
          </mxGeometry>
        </mxCell>
        <mxCell id="A9bid5trGiSyEzx3tyn_-63" style="edgeStyle=orthogonalEdgeStyle;rounded=0;orthogonalLoop=1;jettySize=auto;html=1;entryX=0.5;entryY=1;entryDx=0;entryDy=0;" edge="1" parent="1" source="A9bid5trGiSyEzx3tyn_-48" target="A9bid5trGiSyEzx3tyn_-61">
          <mxGeometry relative="1" as="geometry">
            <Array as="points">
              <mxPoint x="505" y="510" />
              <mxPoint x="620" y="510" />
            </Array>
          </mxGeometry>
        </mxCell>
        <mxCell id="A9bid5trGiSyEzx3tyn_-48" value="企业用户" style="shape=umlActor;verticalLabelPosition=bottom;verticalAlign=top;html=1;outlineConnect=0;" vertex="1" parent="1">
          <mxGeometry x="490" y="600" width="30" height="60" as="geometry" />
        </mxCell>
        <mxCell id="A9bid5trGiSyEzx3tyn_-59" value="考勤审批" style="ellipse;whiteSpace=wrap;html=1;" vertex="1" parent="1">
          <mxGeometry x="505" y="880" width="80" height="50" as="geometry" />
        </mxCell>
        <mxCell id="A9bid5trGiSyEzx3tyn_-60" value="人事审批" style="ellipse;whiteSpace=wrap;html=1;" vertex="1" parent="1">
          <mxGeometry x="505" y="950" width="80" height="44" as="geometry" />
        </mxCell>
        <mxCell id="A9bid5trGiSyEzx3tyn_-61" value="..." style="ellipse;whiteSpace=wrap;html=1;" vertex="1" parent="1">
          <mxGeometry x="580" y="408" width="80" height="44" as="geometry" />
        </mxCell>
        <mxCell id="A9bid5trGiSyEzx3tyn_-64" value="单位信息" style="ellipse;whiteSpace=wrap;html=1;" vertex="1" parent="1">
          <mxGeometry x="280" y="405" width="90" height="50" as="geometry" />
        </mxCell>
        <mxCell id="A9bid5trGiSyEzx3tyn_-65" value="股东信息" style="ellipse;whiteSpace=wrap;html=1;" vertex="1" parent="1">
          <mxGeometry x="280" y="339" width="90" height="50" as="geometry" />
        </mxCell>
        <mxCell id="A9bid5trGiSyEzx3tyn_-66" value="组织架构" style="ellipse;whiteSpace=wrap;html=1;" vertex="1" parent="1">
          <mxGeometry x="280" y="275" width="90" height="50" as="geometry" />
        </mxCell>
        <mxCell id="A9bid5trGiSyEzx3tyn_-67" value="分公司管理" style="ellipse;whiteSpace=wrap;html=1;" vertex="1" parent="1">
          <mxGeometry x="430" y="406" width="90" height="50" as="geometry" />
        </mxCell>
        <mxCell id="A9bid5trGiSyEzx3tyn_-68" value="企业认证" style="ellipse;whiteSpace=wrap;html=1;" vertex="1" parent="1">
          <mxGeometry x="430" y="340" width="90" height="50" as="geometry" />
        </mxCell>
        <mxCell id="A9bid5trGiSyEzx3tyn_-77" style="edgeStyle=orthogonalEdgeStyle;rounded=0;orthogonalLoop=1;jettySize=auto;html=1;entryX=0;entryY=0.5;entryDx=0;entryDy=0;" edge="1" parent="1" source="A9bid5trGiSyEzx3tyn_-71" target="A9bid5trGiSyEzx3tyn_-75">
          <mxGeometry relative="1" as="geometry">
            <Array as="points">
              <mxPoint x="385" y="752" />
            </Array>
          </mxGeometry>
        </mxCell>
        <mxCell id="A9bid5trGiSyEzx3tyn_-79" style="edgeStyle=orthogonalEdgeStyle;rounded=0;orthogonalLoop=1;jettySize=auto;html=1;entryX=0;entryY=0.5;entryDx=0;entryDy=0;" edge="1" parent="1" source="A9bid5trGiSyEzx3tyn_-71" target="A9bid5trGiSyEzx3tyn_-60">
          <mxGeometry relative="1" as="geometry">
            <Array as="points">
              <mxPoint x="385" y="972" />
            </Array>
          </mxGeometry>
        </mxCell>
        <mxCell id="A9bid5trGiSyEzx3tyn_-71" value="组织团体用户" style="shape=umlActor;verticalLabelPosition=bottom;verticalAlign=top;html=1;outlineConnect=0;" vertex="1" parent="1">
          <mxGeometry x="370" y="600" width="30" height="60" as="geometry" />
        </mxCell>
        <mxCell id="A9bid5trGiSyEzx3tyn_-75" value="疫情防控统计" style="ellipse;whiteSpace=wrap;html=1;" vertex="1" parent="1">
          <mxGeometry x="505" y="730" width="80" height="44" as="geometry" />
        </mxCell>
        <mxCell id="A9bid5trGiSyEzx3tyn_-78" value="考勤打卡" style="ellipse;whiteSpace=wrap;html=1;" vertex="1" parent="1">
          <mxGeometry x="505" y="800" width="80" height="50" as="geometry" />
        </mxCell>
        <mxCell id="A9bid5trGiSyEzx3tyn_-93" style="edgeStyle=orthogonalEdgeStyle;rounded=0;orthogonalLoop=1;jettySize=auto;html=1;entryX=0.1;entryY=0.5;entryDx=0;entryDy=0;entryPerimeter=0;" edge="1" parent="1" source="A9bid5trGiSyEzx3tyn_-81" target="A9bid5trGiSyEzx3tyn_-92">
          <mxGeometry relative="1" as="geometry" />
        </mxCell>
        <mxCell id="A9bid5trGiSyEzx3tyn_-81" value="平台运营用户" style="shape=umlActor;verticalLabelPosition=bottom;verticalAlign=top;html=1;outlineConnect=0;" vertex="1" parent="1">
          <mxGeometry x="800" y="1120" width="30" height="60" as="geometry" />
        </mxCell>
        <mxCell id="A9bid5trGiSyEzx3tyn_-84" value="应用授权" style="ellipse;whiteSpace=wrap;html=1;" vertex="1" parent="1">
          <mxGeometry x="940" y="1090" width="80" height="50" as="geometry" />
        </mxCell>
        <mxCell id="A9bid5trGiSyEzx3tyn_-85" value="报表统计" style="ellipse;whiteSpace=wrap;html=1;" vertex="1" parent="1">
          <mxGeometry x="1047" y="1090" width="80" height="50" as="geometry" />
        </mxCell>
        <mxCell id="A9bid5trGiSyEzx3tyn_-86" value="企业培训" style="ellipse;whiteSpace=wrap;html=1;" vertex="1" parent="1">
          <mxGeometry x="920" y="520" width="80" height="50" as="geometry" />
        </mxCell>
        <mxCell id="A9bid5trGiSyEzx3tyn_-87" value="考试报名" style="ellipse;whiteSpace=wrap;html=1;" vertex="1" parent="1">
          <mxGeometry x="1020" y="520" width="80" height="50" as="geometry" />
        </mxCell>
        <mxCell id="A9bid5trGiSyEzx3tyn_-88" value="企业钱包" style="ellipse;whiteSpace=wrap;html=1;" vertex="1" parent="1">
          <mxGeometry x="430" y="275" width="90" height="50" as="geometry" />
        </mxCell>
        <mxCell id="A9bid5trGiSyEzx3tyn_-89" value="平台配置" style="ellipse;whiteSpace=wrap;html=1;" vertex="1" parent="1">
          <mxGeometry x="1161" y="1090" width="80" height="50" as="geometry" />
        </mxCell>
        <mxCell id="A9bid5trGiSyEzx3tyn_-90" value="经营/注册地配置" style="ellipse;whiteSpace=wrap;html=1;" vertex="1" parent="1">
          <mxGeometry x="940" y="1170" width="90" height="50" as="geometry" />
        </mxCell>
        <mxCell id="A9bid5trGiSyEzx3tyn_-91" value="通用模板管理" style="ellipse;whiteSpace=wrap;html=1;" vertex="1" parent="1">
          <mxGeometry x="1052" y="1170" width="80" height="50" as="geometry" />
        </mxCell>
        <mxCell id="A9bid5trGiSyEzx3tyn_-92" value="" style="shape=curlyBracket;whiteSpace=wrap;html=1;rounded=1;" vertex="1" parent="1">
          <mxGeometry x="900" y="1110" width="40" height="90" as="geometry" />
        </mxCell>
        <mxCell id="A9bid5trGiSyEzx3tyn_-94" value="行业授权" style="ellipse;whiteSpace=wrap;html=1;" vertex="1" parent="1">
          <mxGeometry x="1161" y="1170" width="80" height="50" as="geometry" />
        </mxCell>
        <mxCell id="A9bid5trGiSyEzx3tyn_-95" value="企业注册审核" style="ellipse;whiteSpace=wrap;html=1;" vertex="1" parent="1">
          <mxGeometry x="1270" y="1090" width="90" height="50" as="geometry" />
        </mxCell>
        <mxCell id="A9bid5trGiSyEzx3tyn_-97" value="" style="endArrow=block;dashed=1;endFill=0;endSize=12;html=1;" edge="1" parent="1" target="A9bid5trGiSyEzx3tyn_-1">
          <mxGeometry width="160" relative="1" as="geometry">
            <mxPoint x="380" y="630" as="sourcePoint" />
            <mxPoint x="700" y="250" as="targetPoint" />
          </mxGeometry>
        </mxCell>
        <mxCell id="A9bid5trGiSyEzx3tyn_-103" value="是" style="edgeLabel;html=1;align=center;verticalAlign=middle;resizable=0;points=[];" vertex="1" connectable="0" parent="A9bid5trGiSyEzx3tyn_-97">
          <mxGeometry x="-0.2" y="4" relative="1" as="geometry">
            <mxPoint x="-18" y="6" as="offset" />
          </mxGeometry>
        </mxCell>
        <mxCell id="A9bid5trGiSyEzx3tyn_-99" value="" style="endArrow=block;dashed=1;endFill=0;endSize=12;html=1;" edge="1" parent="1" source="A9bid5trGiSyEzx3tyn_-48" target="A9bid5trGiSyEzx3tyn_-71">
          <mxGeometry width="160" relative="1" as="geometry">
            <mxPoint x="100" y="580" as="sourcePoint" />
            <mxPoint x="260" y="580" as="targetPoint" />
          </mxGeometry>
        </mxCell>
        <mxCell id="A9bid5trGiSyEzx3tyn_-100" value="" style="endArrow=block;dashed=1;endFill=0;endSize=12;html=1;exitX=0.5;exitY=0.5;exitDx=0;exitDy=0;exitPerimeter=0;entryX=0.5;entryY=0.5;entryDx=0;entryDy=0;entryPerimeter=0;edgeStyle=orthogonalEdgeStyle;" edge="1" parent="1" source="A9bid5trGiSyEzx3tyn_-7" target="A9bid5trGiSyEzx3tyn_-48">
          <mxGeometry width="160" relative="1" as="geometry">
            <mxPoint x="600" y="650" as="sourcePoint" />
            <mxPoint x="760" y="650" as="targetPoint" />
            <Array as="points">
              <mxPoint x="660" y="456" />
              <mxPoint x="660" y="630" />
            </Array>
          </mxGeometry>
        </mxCell>
        <mxCell id="A9bid5trGiSyEzx3tyn_-102" value="" style="endArrow=block;dashed=1;endFill=0;endSize=12;html=1;exitX=0.5;exitY=0.5;exitDx=0;exitDy=0;exitPerimeter=0;jumpStyle=none;rounded=1;edgeStyle=orthogonalEdgeStyle;" edge="1" parent="1" source="A9bid5trGiSyEzx3tyn_-81">
          <mxGeometry width="160" relative="1" as="geometry">
            <mxPoint x="650" y="850" as="sourcePoint" />
            <mxPoint x="510" y="630" as="targetPoint" />
            <Array as="points">
              <mxPoint x="660" y="1155" />
              <mxPoint x="660" y="630" />
            </Array>
          </mxGeometry>
        </mxCell>
        <mxCell id="A9bid5trGiSyEzx3tyn_-104" value="查询行业报表" style="ellipse;whiteSpace=wrap;html=1;" vertex="1" parent="1">
          <mxGeometry x="920" y="965" width="80" height="50" as="geometry" />
        </mxCell>
        <mxCell id="A9bid5trGiSyEzx3tyn_-105" value="完善信息" style="ellipse;whiteSpace=wrap;html=1;" vertex="1" parent="1">
          <mxGeometry x="1030" y="965" width="80" height="50" as="geometry" />
        </mxCell>
        <mxCell id="A9bid5trGiSyEzx3tyn_-106" value="..." style="ellipse;whiteSpace=wrap;html=1;" vertex="1" parent="1">
          <mxGeometry x="1140" y="965" width="80" height="50" as="geometry" />
        </mxCell>
        <mxCell id="A9bid5trGiSyEzx3tyn_-107" value="..." style="ellipse;whiteSpace=wrap;html=1;" vertex="1" parent="1">
          <mxGeometry x="1120" y="520" width="80" height="50" as="geometry" />
        </mxCell>
        <mxCell id="A9bid5trGiSyEzx3tyn_-108" value="..." style="ellipse;whiteSpace=wrap;html=1;" vertex="1" parent="1">
          <mxGeometry x="1280" y="1170" width="80" height="50" as="geometry" />
        </mxCell>
        <mxCell id="A9bid5trGiSyEzx3tyn_-109" value="用户场景描述&lt;br&gt;&lt;font style=&quot;font-size: 16px&quot;&gt;其中:&lt;/font&gt;&amp;nbsp;&lt;br&gt;&lt;font style=&quot;font-size: 14px&quot;&gt;用户根据不同的可以分为: 一般用户，团体用户，企业用户，保安员，行业用户，平台营运用户&lt;br&gt;所有的用户可以分为:&lt;br&gt;一级: 一般用户&lt;br&gt;二级: 团体用户&lt;br&gt;三级: 企业用户&lt;br&gt;四级: 保安员，行业用户，平台营运用户&lt;br&gt;&lt;br&gt;高级用户本身也是低级用户的一种，因此高级用户拥有低级用户的行为: 比如： 企业用户都有团体用户的疫情防控行为功能，但是团体用户不具备企业用户拥有的企业钱包和认证等高级功能&lt;br&gt;&lt;br&gt;&lt;br&gt;&lt;/font&gt;" style="text;html=1;strokeColor=none;fillColor=none;align=left;verticalAlign=middle;whiteSpace=wrap;rounded=0;fontSize=23;fontFamily=Helvetica;" vertex="1" parent="1">
          <mxGeometry x="20" y="-140" width="670" height="210" as="geometry" />
        </mxCell>
        <mxCell id="A9bid5trGiSyEzx3tyn_-119" style="edgeStyle=orthogonalEdgeStyle;rounded=1;jumpStyle=none;orthogonalLoop=1;jettySize=auto;html=1;entryX=0;entryY=0.5;entryDx=0;entryDy=0;fontFamily=Helvetica;fontSize=23;" edge="1" parent="1" source="A9bid5trGiSyEzx3tyn_-111" target="A9bid5trGiSyEzx3tyn_-116">
          <mxGeometry relative="1" as="geometry" />
        </mxCell>
        <mxCell id="A9bid5trGiSyEzx3tyn_-111" value="人事" style="shape=umlActor;verticalLabelPosition=bottom;verticalAlign=top;html=1;outlineConnect=0;" vertex="1" parent="1">
          <mxGeometry x="800" y="610" width="30" height="60" as="geometry" />
        </mxCell>
        <mxCell id="A9bid5trGiSyEzx3tyn_-120" style="edgeStyle=orthogonalEdgeStyle;rounded=1;jumpStyle=none;orthogonalLoop=1;jettySize=auto;html=1;entryX=0;entryY=0.5;entryDx=0;entryDy=0;fontFamily=Helvetica;fontSize=23;" edge="1" parent="1" source="A9bid5trGiSyEzx3tyn_-113" target="A9bid5trGiSyEzx3tyn_-117">
          <mxGeometry relative="1" as="geometry" />
        </mxCell>
        <mxCell id="A9bid5trGiSyEzx3tyn_-113" value="司机" style="shape=umlActor;verticalLabelPosition=bottom;verticalAlign=top;html=1;outlineConnect=0;" vertex="1" parent="1">
          <mxGeometry x="800" y="730" width="30" height="60" as="geometry" />
        </mxCell>
        <mxCell id="A9bid5trGiSyEzx3tyn_-114" value="行政办公" style="ellipse;whiteSpace=wrap;html=1;" vertex="1" parent="1">
          <mxGeometry x="1020" y="615" width="80" height="50" as="geometry" />
        </mxCell>
        <mxCell id="A9bid5trGiSyEzx3tyn_-115" value="违法审核？" style="ellipse;whiteSpace=wrap;html=1;" vertex="1" parent="1">
          <mxGeometry x="1020" y="735" width="80" height="50" as="geometry" />
        </mxCell>
        <mxCell id="A9bid5trGiSyEzx3tyn_-116" value="行政资料" style="ellipse;whiteSpace=wrap;html=1;" vertex="1" parent="1">
          <mxGeometry x="920" y="615" width="80" height="50" as="geometry" />
        </mxCell>
        <mxCell id="A9bid5trGiSyEzx3tyn_-117" value="驾驶资料" style="ellipse;whiteSpace=wrap;html=1;" vertex="1" parent="1">
          <mxGeometry x="920" y="735" width="80" height="50" as="geometry" />
        </mxCell>
        <mxCell id="A9bid5trGiSyEzx3tyn_-118" value="车辆维护" style="ellipse;whiteSpace=wrap;html=1;" vertex="1" parent="1">
          <mxGeometry x="1132" y="735" width="80" height="50" as="geometry" />
        </mxCell>
        <mxCell id="A9bid5trGiSyEzx3tyn_-122" style="edgeStyle=orthogonalEdgeStyle;rounded=1;jumpStyle=none;orthogonalLoop=1;jettySize=auto;html=1;entryX=0;entryY=0.5;entryDx=0;entryDy=0;fontFamily=Helvetica;fontSize=23;" edge="1" parent="1" source="A9bid5trGiSyEzx3tyn_-123">
          <mxGeometry relative="1" as="geometry">
            <mxPoint x="920" y="870" as="targetPoint" />
          </mxGeometry>
        </mxCell>
        <mxCell id="A9bid5trGiSyEzx3tyn_-123" value="客服" style="shape=umlActor;verticalLabelPosition=bottom;verticalAlign=top;html=1;outlineConnect=0;" vertex="1" parent="1">
          <mxGeometry x="800" y="840" width="30" height="60" as="geometry" />
        </mxCell>
        <mxCell id="A9bid5trGiSyEzx3tyn_-126" value="..." style="ellipse;whiteSpace=wrap;html=1;" vertex="1" parent="1">
          <mxGeometry x="1127" y="845" width="80" height="50" as="geometry" />
        </mxCell>
        <mxCell id="A9bid5trGiSyEzx3tyn_-127" value="客服投诉记录" style="ellipse;whiteSpace=wrap;html=1;" vertex="1" parent="1">
          <mxGeometry x="920" y="845" width="80" height="50" as="geometry" />
        </mxCell>
        <mxCell id="A9bid5trGiSyEzx3tyn_-128" value="问题处理" style="ellipse;whiteSpace=wrap;html=1;" vertex="1" parent="1">
          <mxGeometry x="1020" y="845" width="80" height="50" as="geometry" />
        </mxCell>
        <mxCell id="A9bid5trGiSyEzx3tyn_-129" value="..." style="ellipse;whiteSpace=wrap;html=1;" vertex="1" parent="1">
          <mxGeometry x="1250" y="735" width="80" height="50" as="geometry" />
        </mxCell>
        <mxCell id="A9bid5trGiSyEzx3tyn_-130" value="..." style="ellipse;whiteSpace=wrap;html=1;" vertex="1" parent="1">
          <mxGeometry x="1132" y="615" width="80" height="50" as="geometry" />
        </mxCell>
      </root>
    </mxGraphModel>
  </diagram>
</mxfile>
